<?xml version="1.0" standalone="no"?>
<!DOCTYPE svg PUBLIC "-//W3C//DTD SVG 20010904//EN"
 "http://www.w3.org/TR/2001/REC-SVG-20010904/DTD/svg10.dtd">
<svg version="1.0" xmlns="http://www.w3.org/2000/svg"
 width="1440.000000pt" height="831.000000pt" viewBox="0 0 1440.000000 831.000000"
 preserveAspectRatio="xMidYMid meet">

<g transform="translate(0.000000,831.000000) scale(0.100000,-0.100000)"
fill="#FFFFFF" stroke="none">
<path d="M5609 8035 c-56 -30 -63 -125 -12 -165 51 -40 133 -16 153 44 14 45
4 80 -32 111 -33 28 -70 31 -109 10z"/>
<path d="M6411 7734 c-12 -15 -21 -37 -21 -49 0 -12 9 -34 21 -49 16 -20 29
-26 59 -26 71 0 104 76 55 125 -34 35 -86 34 -114 -1z"/>
<path d="M6890 7519 c-53 -31 -73 -65 -78 -129 -3 -45 0 -61 20 -89 39 -58 72
-76 137 -76 71 1 115 29 143 93 62 139 -92 277 -222 201z"/>
<path d="M6213 7420 c-47 -19 -58 -92 -20 -128 51 -48 127 -12 127 60 0 54
-55 89 -107 68z"/>
<path d="M5271 7376 c-87 -48 -50 -186 50 -186 48 0 98 47 99 92 0 82 -80 132
-149 94z"/>
<path d="M6980 7097 c-19 -6 -58 -34 -87 -63 -59 -58 -90 -137 -79 -202 26
-162 14 -235 -48 -308 -110 -128 -318 -136 -399 -15 -133 195 -345 259 -535
161 -104 -53 -170 -131 -203 -242 -45 -147 0 -311 112 -412 28 -25 55 -46 59
-46 4 0 18 -24 30 -52 32 -75 31 -157 -4 -231 -48 -100 -133 -152 -266 -163
-99 -7 -142 -22 -189 -67 -155 -147 -73 -405 138 -436 51 -7 44 7 81 -161 109
-503 511 -955 1008 -1134 509 -183 1074 -102 1504 216 346 255 579 644 638
1063 16 112 13 380 -5 491 -19 119 -74 301 -125 409 -216 468 -655 812 -1155
906 l-113 21 -4 47 c-9 94 -72 179 -162 216 -41 17 -144 18 -196 2z m404
-1011 c328 -91 581 -346 667 -673 29 -109 29 -306 0 -415 -67 -256 -246 -479
-478 -596 -70 -36 -188 -70 -283 -82 -540 -70 -1010 338 -1010 878 0 200 53
370 165 528 62 86 189 202 279 253 84 48 238 105 326 120 77 14 264 6 334 -13z"/>
<path d="M7022 5851 c-270 -67 -464 -286 -503 -570 -37 -263 119 -548 364
-665 116 -56 178 -70 297 -70 188 2 351 73 484 214 219 233 234 592 35 856
-150 198 -430 295 -677 235z m350 -121 c31 -11 88 -43 127 -70 220 -155 292
-453 169 -702 -38 -76 -150 -191 -225 -231 -66 -35 -191 -67 -262 -67 -244 1
-467 167 -535 399 -21 73 -21 230 0 302 65 218 247 375 464 398 78 9 197 -5
262 -29z"/>
<path d="M5535 6984 c-88 -46 -120 -134 -79 -221 66 -138 285 -95 301 58 12
120 -120 217 -222 163z"/>
<path d="M6481 6940 c-73 -31 -131 -115 -131 -191 0 -53 46 -136 91 -166 82
-54 195 -38 263 37 61 67 69 151 23 232 -33 59 -88 92 -161 95 -33 2 -72 -2
-85 -7z"/>
<path d="M5029 6821 c-22 -23 -29 -39 -29 -69 0 -103 125 -138 180 -50 27 43
20 84 -20 121 -42 38 -92 37 -131 -2z"/>
<path d="M4944 6259 c-18 -5 -48 -27 -68 -49 -33 -36 -36 -46 -36 -98 0 -100
59 -162 155 -162 175 0 220 237 58 306 -36 16 -63 16 -109 3z"/>
<path d="M5466 6055 c-173 -44 -195 -295 -33 -371 91 -42 180 -24 244 49 133
151 -13 372 -211 322z"/>
<path d="M1333 3953 c-39 -7 -81 -59 -88 -106 -3 -23 -5 -566 -3 -1207 l3
-1165 23 -32 c47 -66 147 -65 196 0 l21 28 3 1190 c2 1074 1 1194 -14 1224
-24 52 -82 80 -141 68z"/>
<path d="M3434 3926 c-17 -8 -40 -26 -52 -41 -22 -27 -22 -32 -22 -471 0 -244
-3 -444 -6 -444 -3 0 -38 30 -78 66 -137 124 -290 213 -441 256 -66 18 -104
22 -215 22 -118 0 -147 -4 -225 -28 -276 -83 -497 -271 -619 -526 -73 -151
-89 -227 -89 -410 0 -139 2 -164 26 -245 109 -366 404 -632 771 -696 112 -19
322 -7 431 25 146 43 325 145 404 230 14 14 28 26 33 26 4 0 8 -50 8 -110 l0
-110 34 -38 c31 -34 39 -37 86 -37 47 0 55 3 86 37 l34 38 0 1194 0 1193 -21
27 c-23 30 -69 56 -96 56 -10 -1 -32 -7 -49 -14z m-609 -880 c304 -80 525
-374 528 -701 1 -194 -62 -344 -208 -491 -76 -78 -104 -98 -185 -138 -124 -61
-214 -79 -350 -73 -193 9 -337 74 -475 212 -147 148 -212 319 -202 530 8 170
57 299 162 429 87 106 256 209 385 235 30 6 64 13 75 15 38 9 210 -3 270 -18z"/>
<path d="M11210 3934 c-92 -33 -89 -16 -91 -509 0 -236 -3 -434 -6 -442 -3 -8
-28 8 -72 48 -187 171 -402 272 -608 286 -362 24 -735 -211 -907 -570 -97
-203 -114 -473 -42 -685 45 -132 132 -276 230 -381 50 -54 177 -145 258 -184
157 -77 283 -102 477 -94 158 5 259 31 394 98 80 41 204 126 241 168 11 12 22
21 26 21 4 0 8 -48 9 -106 1 -69 6 -116 16 -134 15 -29 69 -60 105 -60 30 0
75 25 99 56 l21 27 0 1186 c0 921 -3 1191 -13 1210 -23 46 -95 80 -137 65z
m-678 -878 c239 -46 441 -217 530 -448 37 -95 57 -247 46 -339 -21 -172 -96
-318 -225 -439 -218 -203 -528 -247 -803 -112 -164 80 -299 236 -362 417 -30
86 -37 276 -13 380 26 120 95 245 185 336 174 176 407 250 642 205z"/>
<path d="M7905 3320 c-11 -4 -31 -20 -45 -35 l-25 -27 0 -899 0 -899 33 -32
c28 -28 39 -33 81 -33 60 0 101 26 118 76 8 24 11 208 12 629 1 387 5 609 12
635 45 164 186 294 361 331 219 47 442 -77 530 -294 23 -57 23 -58 28 -679 5
-611 5 -622 26 -650 11 -15 39 -34 61 -42 35 -13 46 -13 79 0 23 9 48 29 62
49 l23 34 -3 626 c-4 700 -1 668 -80 828 -128 260 -433 423 -722 384 -104 -13
-228 -61 -312 -118 -35 -24 -64 -43 -65 -41 0 1 -2 18 -4 38 -8 95 -90 152
-170 119z"/>
<path d="M4585 3313 c-60 -8 -182 -46 -253 -79 -207 -95 -376 -260 -481 -470
-57 -115 -82 -209 -88 -340 l-6 -111 31 -34 30 -34 801 -3 c909 -3 815 8 785
-93 -66 -221 -247 -404 -469 -475 -107 -35 -250 -43 -360 -20 -103 21 -241 89
-325 160 -36 31 -77 58 -92 61 -74 17 -148 -42 -148 -118 0 -55 23 -90 101
-158 105 -91 187 -134 324 -170 79 -21 113 -24 270 -24 156 0 191 3 265 23
104 28 233 88 314 146 80 57 193 175 244 254 44 68 107 212 118 267 10 54 19
50 37 -14 86 -309 328 -549 652 -647 83 -26 104 -28 260 -28 160 -1 175 1 255
28 134 44 282 136 405 250 32 31 60 56 62 56 2 0 3 -54 3 -120 0 -134 11 -173
55 -208 34 -27 95 -29 136 -5 61 36 61 32 57 591 -4 577 -4 575 -94 762 -122
254 -345 445 -619 527 -81 24 -106 27 -245 27 -186 0 -269 -18 -426 -94 -249
-121 -439 -351 -504 -612 -13 -52 -24 -55 -33 -9 -14 68 -72 197 -127 279 -56
84 -153 187 -235 249 -184 137 -479 216 -700 186z m273 -258 c205 -42 401
-190 491 -371 37 -75 73 -182 66 -195 -4 -5 -273 -9 -701 -9 -800 0 -714 -15
-665 119 46 126 126 235 232 317 72 55 204 118 279 133 30 6 64 13 75 15 48 9
152 5 223 -9z m1890 0 c152 -31 310 -125 410 -245 188 -227 213 -543 65 -809
-49 -87 -165 -206 -253 -259 -160 -96 -347 -125 -524 -83 -340 81 -579 405
-551 746 8 97 53 237 103 319 71 118 194 227 324 285 55 25 85 33 193 55 48 9
162 5 233 -9z"/>
<path d="M12355 3310 c-146 -23 -326 -97 -451 -186 -182 -130 -329 -357 -370
-572 -18 -95 -18 -309 0 -405 40 -206 173 -419 346 -552 84 -64 214 -130 320
-162 88 -26 107 -28 270 -28 163 0 182 2 269 28 211 63 379 181 509 355 60 82
132 226 157 317 23 82 32 326 15 419 -64 356 -349 664 -710 766 -86 24 -262
34 -355 20z m300 -265 c238 -63 419 -237 506 -485 30 -87 34 -303 6 -394 -79
-258 -274 -445 -527 -506 -244 -58 -495 13 -669 189 -223 226 -273 544 -130
827 103 207 301 350 534 388 54 8 219 -2 280 -19z"/>
<path d="M2315 1160 c-3 -5 -3 -14 0 -20 4 -7 1690 -10 5025 -10 4296 0 5019
2 5023 14 3 8 3 17 0 20 -11 11 -10041 7 -10048 -4z"/>
<path d="M3645 1009 c-17 -4 -44 -22 -60 -39 l-30 -31 -3 -189 c-4 -212 3
-245 60 -280 28 -17 50 -20 141 -20 106 0 107 0 107 24 0 24 -2 24 -106 28
-98 3 -106 5 -124 28 -15 20 -20 42 -20 103 l0 77 96 0 95 0 -3 28 -3 27 -92
3 -93 3 0 68 c0 54 4 74 21 95 20 25 24 26 125 26 l104 0 0 30 0 30 -92 -1
c-51 0 -107 -5 -123 -10z"/>
<path d="M5270 775 c0 -204 3 -251 16 -276 17 -34 66 -59 114 -59 27 0 31 3
28 22 -2 15 -13 24 -35 30 -56 14 -63 36 -63 190 l0 138 51 0 c47 0 50 2 47
23 -3 19 -10 22 -50 25 l-48 3 0 75 0 74 -30 0 -30 0 0 -245z"/>
<path d="M6808 997 c-54 -46 -65 -118 -24 -177 l23 -35 -44 -39 c-54 -47 -73
-83 -73 -137 0 -91 80 -169 175 -169 61 0 124 35 150 84 11 20 22 36 25 36 3
0 32 -27 64 -59 51 -52 61 -58 77 -48 11 7 19 16 19 22 0 5 -30 39 -66 76
l-66 66 51 102 51 101 -33 0 c-31 0 -35 -4 -70 -75 -20 -41 -40 -75 -45 -75
-10 0 -97 88 -91 93 2 2 17 11 32 21 120 74 66 236 -78 236 -37 0 -57 -6 -77
-23z m122 -37 c55 -30 49 -96 -12 -130 l-41 -23 -34 36 c-40 44 -41 56 -7 96
27 32 60 39 94 21z m-1 -294 l64 -64 -23 -37 c-12 -20 -33 -43 -45 -51 -29
-19 -95 -21 -122 -3 -50 30 -69 112 -37 158 17 24 71 61 89 61 6 0 39 -29 74
-64z"/>
<path d="M7620 735 l0 -285 30 0 30 0 2 238 3 237 99 -233 c55 -128 104 -236
110 -241 32 -26 53 8 151 236 53 125 101 232 106 238 5 5 9 -91 9 -233 l0
-242 25 0 25 0 0 285 0 285 -39 0 c-22 0 -43 -5 -47 -12 -4 -6 -51 -112 -104
-236 -53 -123 -101 -223 -105 -223 -8 -1 -22 30 -150 334 l-57 137 -44 0 -44
0 0 -285z"/>
<path d="M8980 735 l0 -285 30 0 c28 0 30 3 30 36 0 25 9 48 31 75 17 21 35
39 39 39 5 0 36 -33 69 -74 51 -62 66 -74 96 -78 20 -2 38 -2 40 0 2 3 -28 43
-68 91 -40 47 -78 93 -85 103 -11 14 -2 31 63 116 41 55 75 103 75 106 0 3
-15 6 -32 6 -30 0 -41 -11 -128 -123 l-95 -122 -3 198 -2 197 -30 0 -30 0 0
-285z"/>
<path d="M9850 780 c0 -268 5 -297 60 -325 43 -22 95 -17 95 10 0 14 -8 21
-27 23 -15 2 -37 15 -48 29 -18 23 -20 40 -20 164 l0 139 51 0 c47 0 50 2 47
23 -3 19 -10 22 -50 25 l-47 3 -3 72 c-3 70 -4 72 -30 75 l-28 3 0 -241z"/>
<path d="M10057 1013 c-4 -3 -7 -26 -7 -50 0 -41 1 -43 30 -43 29 0 30 1 30
50 0 46 -2 50 -23 50 -13 0 -27 -3 -30 -7z"/>
<path d="M4472 859 c-127 -63 -162 -232 -71 -342 81 -98 224 -108 317 -23 25
22 52 67 52 86 0 24 -45 7 -79 -29 -61 -66 -146 -75 -219 -22 -28 19 -62 75
-62 100 0 8 59 11 190 11 l190 0 0 33 c0 18 -11 56 -25 84 -54 107 -187 154
-293 102z m179 -62 c37 -25 82 -85 73 -98 -3 -5 -75 -9 -160 -9 l-155 0 7 23
c29 94 153 139 235 84z"/>
<path d="M4945 861 c-90 -41 -118 -113 -113 -297 l3 -109 28 -3 27 -3 0 125
c0 147 14 194 65 226 52 32 108 27 153 -14 l37 -34 3 -151 3 -151 30 0 29 0 0
143 c-1 187 -20 233 -113 272 -48 20 -103 19 -152 -4z"/>
<path d="M5604 861 c-92 -42 -145 -150 -123 -249 23 -107 104 -174 209 -174
166 0 269 170 194 320 -53 107 -174 151 -280 103z m187 -77 c42 -40 59 -75 59
-124 0 -150 -173 -220 -272 -110 -51 57 -59 112 -27 177 35 69 79 96 152 91
46 -4 63 -10 88 -34z"/>
<path d="M6054 870 c-11 -4 -33 -23 -48 -41 -24 -28 -27 -40 -23 -77 6 -56 37
-88 101 -107 64 -19 86 -40 86 -81 0 -82 -110 -97 -140 -18 -12 32 -60 35 -60
4 0 -65 85 -127 155 -114 45 8 100 60 108 102 7 36 -6 88 -29 113 -9 10 -42
28 -73 40 -89 33 -108 60 -75 107 25 36 89 27 105 -14 12 -33 59 -34 59 -1 0
66 -94 116 -166 87z"/>
<path d="M8405 861 c-80 -37 -125 -111 -125 -206 0 -175 201 -282 337 -179 40
30 43 30 43 -1 0 -20 5 -25 25 -25 l25 0 0 135 c0 115 -3 142 -19 174 -53 104
-183 150 -286 102z m173 -61 c48 -29 72 -75 72 -138 0 -63 -18 -102 -63 -136
-49 -37 -102 -42 -156 -14 -67 35 -86 66 -86 146 0 53 5 73 22 98 45 63 146
84 211 44z"/>
<path d="M8866 855 c-45 -24 -46 -24 -46 -4 0 16 -5 20 -27 17 l-28 -3 0 -205
0 -205 33 -3 32 -3 0 149 c0 168 7 189 75 213 29 11 35 18 35 41 0 35 -13 35
-74 3z"/>
<path d="M9493 864 c-45 -19 -99 -79 -119 -130 -52 -137 59 -299 205 -298 80
0 161 48 196 115 29 54 -26 54 -72 -1 -56 -65 -136 -75 -212 -27 -32 21 -75
93 -65 109 3 4 89 8 191 8 l186 0 -6 52 c-13 105 -109 188 -217 187 -30 0 -69
-7 -87 -15z m164 -60 c34 -17 83 -76 83 -101 0 -10 -36 -13 -154 -13 -85 0
-157 4 -160 9 -9 13 36 73 73 98 41 28 107 30 158 7z"/>
<path d="M10298 870 c-46 -14 -85 -48 -107 -93 -18 -38 -21 -62 -21 -185 l0
-142 29 0 30 0 3 151 3 151 39 34 c46 40 102 46 152 15 52 -32 64 -72 64 -220
l0 -131 31 0 31 0 -4 148 c-3 110 -8 155 -20 177 -44 82 -140 122 -230 95z"/>
<path d="M10719 857 c-64 -34 -102 -93 -107 -167 -2 -32 -2 -74 2 -93 8 -43
67 -112 119 -138 58 -30 149 -24 206 14 l41 27 0 -33 c0 -19 -10 -49 -22 -67
-65 -95 -200 -91 -263 8 -19 30 -57 43 -69 23 -3 -4 7 -28 23 -53 47 -73 151
-112 237 -89 58 16 105 50 131 96 20 36 23 54 23 175 0 155 -7 190 -52 244
-63 76 -181 99 -269 53z m168 -48 c78 -38 117 -144 79 -218 -8 -15 -31 -42
-51 -60 -30 -26 -44 -31 -86 -31 -83 0 -138 42 -159 121 -16 57 3 115 51 161
54 52 100 59 166 27z"/>
<path d="M3900 860 c0 -6 37 -100 82 -211 l82 -200 34 3 c33 3 35 5 78 113 25
61 63 152 85 202 21 51 39 95 39 99 0 3 -14 4 -32 2 -31 -3 -33 -6 -98 -165
-36 -90 -69 -161 -74 -160 -5 2 -30 55 -56 117 -83 204 -86 210 -114 210 -14
0 -26 -5 -26 -10z"/>
<path d="M10057 863 c-4 -3 -7 -98 -7 -210 l0 -203 30 0 30 0 0 210 0 210 -23
0 c-13 0 -27 -3 -30 -7z"/>
</g>
</svg>
