<?xml version="1.0" standalone="no"?><svg xmlns="http://www.w3.org/2000/svg" viewBox="0 0 1440 320"><path fill="#252262" fill-opacity="1" d="M0,224L34.3,208C68.6,192,137,160,206,176C274.3,192,343,256,411,250.7C480,245,549,171,617,165.3C685.7,160,754,224,823,208C891.4,192,960,96,1029,74.7C1097.1,53,1166,107,1234,138.7C1302.9,171,1371,181,1406,186.7L1440,192L1440,0L1405.7,0C1371.4,0,1303,0,1234,0C1165.7,0,1097,0,1029,0C960,0,891,0,823,0C754.3,0,686,0,617,0C548.6,0,480,0,411,0C342.9,0,274,0,206,0C137.1,0,69,0,34,0L0,0Z"></path></svg>